<?xml version="1.0" encoding="UTF-8"?>
<svg width="1970px" height="402px" viewBox="0 0 1970 402" version="1.1" xmlns="http://www.w3.org/2000/svg" xmlns:xlink="http://www.w3.org/1999/xlink">
    <title>Group</title>
    <defs>
        <linearGradient x1="76.2262818%" y1="7.45934826%" x2="23.6511094%" y2="92.5655852%" id="linearGradient-1">
            <stop stop-color="#00EAFF" offset="0%"></stop>
            <stop stop-color="#0080FF" offset="25.2530882%"></stop>
            <stop stop-color="#8000FF" offset="49.7394282%"></stop>
            <stop stop-color="#E619E6" offset="74.9912298%"></stop>
            <stop stop-color="#FF0000" offset="99.9136118%"></stop>
        </linearGradient>
    </defs>
    <g id="Main" stroke="none" stroke-width="1" fill="none" fill-rule="evenodd">
        <g id="Artboard" transform="translate(-129.000000, -149.000000)" fill-rule="nonzero">
            <g id="Group" transform="translate(129.000000, 149.000000)">
                <g id="LogoVector" fill="url(#linearGradient-1)">
                    <path d="M432.598765,223.951028 C432.598765,226.002407 432.123895,227.952504 431.22332,229.644848 L338.558363,390.145156 C334.628442,396.95198 327.365648,401.145156 319.505805,401.145156 L113.592961,401.145156 C105.733118,401.145156 98.470323,396.95198 94.540402,390.145156 L1.86679,229.629552 C0.968844,227.940022 0.5,225.999302 0.5,223.951028 C0.5,217.307901 5.885318,211.922583 12.528445,211.922583 L114.199342,211.922583 L139.965382,255.687949 L140.123755,255.949452 C143.56213,261.470142 150.796681,263.269462 156.433324,259.951035 L156.433324,259.951035 L156.725027,259.773687 C159.323961,258.142692 161.205446,255.576775 161.976025,252.597905 L161.976025,252.597905 L194.807505,125.677705 L222.998349,330.011885 L223.041062,330.296747 C224.082331,336.72482 230.072426,341.1783 236.557845,340.283548 L236.557845,340.283548 L236.85245,340.239203 C241.548041,339.473143 245.362876,336.004494 246.559058,331.380352 L246.559058,331.380352 L286.133013,178.39653 L302.381735,205.996566 L302.543066,206.262694 C304.735954,209.77701 308.59028,211.922583 312.747249,211.922583 L312.747249,211.922583 L420.57032,211.922583 L420.57032,211.922583 C427.213447,211.922583 432.598765,217.307901 432.598765,223.951028 Z M319.505805,0.493649 C327.365648,0.493649 334.628442,4.686825 338.558363,11.493649 L431.229106,172.001259 C432.125282,173.691832 432.598765,175.640838 432.598765,177.687777 C432.598765,184.330904 427.213447,189.716222 420.57032,189.716222 L318.566328,189.716222 L292.800288,145.950856 L292.62294,145.659153 C290.991945,143.060218 288.426028,141.178734 285.447158,140.408155 L285.447158,140.408155 L285.167463,140.339295 C278.826545,138.85703 272.429227,142.702682 270.789645,149.040901 L270.789645,149.040901 L237.95724,275.960175 L209.767321,71.62692 L209.722976,71.332314 C208.956916,66.636723 205.488267,62.821889 200.864125,61.625707 C194.432698,59.962014 187.870306,63.827026 186.206612,70.258453 L186.206612,70.258453 L146.631731,223.24135 L130.383935,195.64224 L130.222604,195.376112 C128.029716,191.861796 124.17539,189.716222 120.018421,189.716222 L120.018421,189.716222 L12.528445,189.716222 L12.528445,189.716222 C5.885318,189.716222 0.5,184.330904 0.5,177.687777 C0.5,175.65653 0.956256,173.735416 1.837658,172.056157 L94.540402,11.493649 C98.470323,4.686825 105.733118,0.493649 113.592961,0.493649 L319.505805,0.493649 Z" id="PulseChain-Logo-Shape"></path>
                </g>
                <g id="PulseChain" transform="translate(491.000000, 80.000000)" fill="#000000">
                    <path d="M141,84.034384 C141,94.4106972 138.553045,104.138491 133.659136,113.217765 C128.765226,122.297039 121.101179,129.616046 110.666994,135.174785 C100.232809,140.733524 87.0746562,143.512894 71.1925344,143.512894 L38.7819253,143.512894 L38.7819253,218 L0,218 L0,24 L71.1925344,24 C86.151277,24 98.8939096,26.5940783 109.420432,31.782235 C119.946955,36.9703916 127.841847,44.104107 133.105108,53.1833811 C138.368369,62.2626552 141,72.5463228 141,84.034384 Z M69.5304519,112.106017 C80.2416503,112.106017 88.1827112,109.650907 93.3536346,104.740688 C98.524558,99.830468 101.11002,92.9283668 101.11002,84.034384 C101.11002,65.1346705 90.5834971,55.6848138 69.5304519,55.6848138 L38.7819253,55.6848138 L38.7819253,112.106017 L69.5304519,112.106017 Z" id="Shape"></path>
                    <path d="M309,64 L309,218.053476 L269.744318,218.053476 L269.744318,198.588235 C264.732955,205.262032 258.190341,210.499109 250.116477,214.299465 C242.042614,218.099822 233.272727,220 223.806818,220 C211.742424,220 201.070076,217.45098 191.789773,212.352941 C182.50947,207.254902 175.224432,199.746881 169.934659,189.828877 C164.644886,179.910873 162,168.092692 162,154.374332 L162,64 L200.977273,64 L200.977273,148.812834 C200.977273,161.048128 204.039773,170.456328 210.164773,177.037433 C216.289773,183.618538 224.642045,186.909091 235.221591,186.909091 C245.986742,186.909091 254.431818,183.618538 260.556818,177.037433 C266.681818,170.456328 269.744318,161.048128 269.744318,148.812834 L269.744318,64 L309,64 Z" id="Path"></path>
                    <polygon id="Path" points="375 12 375 217 336 217 336 12"></polygon>
                    <path d="M461.33913,220 C448.724638,220 437.408696,217.729895 427.391304,213.189685 C417.373913,208.649476 409.443478,202.487762 403.6,194.704545 C397.756522,186.921329 394.556522,178.304196 394,168.853147 L433.234783,168.853147 C433.976812,174.783217 436.898551,179.694056 442,183.585664 C447.101449,187.477273 453.455072,189.423077 461.06087,189.423077 C468.481159,189.423077 474.278261,187.940559 478.452174,184.975524 C482.626087,182.01049 484.713043,178.211538 484.713043,173.578671 C484.713043,168.575175 482.162319,164.822552 477.06087,162.320804 C471.95942,159.819056 463.843478,157.085664 452.713043,154.120629 C441.211594,151.340909 431.797101,148.468531 424.469565,145.503497 C417.142029,142.538462 410.834783,137.998252 405.547826,131.882867 C400.26087,125.767483 397.617391,117.520979 397.617391,107.143357 C397.617391,98.6188811 400.075362,90.8356643 404.991304,83.7937063 C409.907246,76.7517483 416.956522,71.1923077 426.13913,67.1153846 C435.321739,63.0384615 446.127536,61 458.556522,61 C476.921739,61 491.576812,65.5865385 502.521739,74.7596154 C513.466667,83.9326923 519.495652,96.3024476 520.608696,111.868881 L483.321739,111.868881 C482.765217,105.753497 480.214493,100.888986 475.669565,97.2753497 C471.124638,93.6617133 465.049275,91.8548951 457.443478,91.8548951 C450.394203,91.8548951 444.968116,93.1520979 441.165217,95.7465035 C437.362319,98.3409091 435.46087,101.954545 435.46087,106.587413 C435.46087,111.776224 438.057971,115.714161 443.252174,118.401224 C448.446377,121.088287 456.515942,123.821678 467.46087,126.601399 C478.591304,129.381119 487.773913,132.253497 495.008696,135.218531 C502.243478,138.183566 508.504348,142.770105 513.791304,148.978147 C519.078261,155.186189 521.814493,163.386364 522,173.578671 C522,182.473776 519.542029,190.442308 514.626087,197.484266 C509.710145,204.526224 502.66087,210.039336 493.478261,214.023601 C484.295652,218.007867 473.582609,220 461.33913,220 Z" id="Path"></path>
                    <path d="M688,137.164336 C688,142.723776 687.629764,147.727273 686.889292,152.174825 L574.430127,152.174825 C575.355717,163.293706 579.243194,172.003497 586.092559,178.304196 C592.941924,184.604895 601.364791,187.755245 611.361162,187.755245 C625.800363,187.755245 636.07441,181.547203 642.183303,169.131119 L684.112523,169.131119 C679.669691,183.956294 671.154265,196.140734 658.566243,205.684441 C645.978221,215.228147 630.520871,220 612.194192,220 C597.384755,220 584.102541,216.710664 572.34755,210.131993 C560.592559,203.553322 551.42922,194.241259 544.857532,182.195804 C538.285844,170.15035 535,156.251748 535,140.5 C535,124.562937 538.239564,110.571678 544.718693,98.5262238 C551.197822,86.4807692 560.268603,77.215035 571.931034,70.729021 C583.593466,64.243007 597.014519,61 612.194192,61 C626.818512,61 639.915608,64.1503497 651.485481,70.451049 C663.055354,76.7517483 672.033575,85.6931818 678.420145,97.2753497 C684.806715,108.857517 688,122.153846 688,137.164336 Z M647.736842,126.045455 C647.551724,116.038462 643.941924,108.023601 636.907441,102.000874 C629.872958,95.9781469 621.264973,92.9667832 611.083485,92.9667832 C601.45735,92.9667832 593.358439,95.8854895 586.786751,101.722902 C580.215064,107.560315 576.188748,115.667832 574.707804,126.045455 L647.736842,126.045455 Z" id="Shape"></path>
                    <path d="M707,120.13885 C707,101.070126 711.295455,83.9915849 719.886364,68.9032258 C728.477273,53.8148668 740.208944,42.058906 755.081378,33.6353436 C769.953812,25.2117812 786.627566,21 805.102639,21 C826.718475,21 845.655425,26.5539972 861.91349,37.6619916 C878.171554,48.769986 889.533724,64.1360449 896,83.7601683 L851.382698,83.7601683 C846.94868,74.5035063 840.713343,67.5610098 832.676686,62.9326788 C824.640029,58.3043478 815.356305,55.9901823 804.825513,55.9901823 C793.555718,55.9901823 783.532991,58.628331 774.757331,63.9046283 C765.981672,69.1809257 759.145894,76.6325386 754.25,86.259467 C749.354106,95.8863955 746.906158,107.179523 746.906158,120.13885 C746.906158,132.913043 749.354106,144.159888 754.25,153.879383 C759.145894,163.598878 765.981672,171.096774 774.757331,176.373072 C783.532991,181.649369 793.555718,184.287518 804.825513,184.287518 C815.356305,184.287518 824.640029,181.927069 832.676686,177.206171 C840.713343,172.485273 846.94868,165.496494 851.382698,156.239832 L896,156.239832 C889.533724,176.049088 878.217742,191.461431 862.052053,202.476858 C845.886364,213.492286 826.903226,219 805.102639,219 C786.627566,219 769.953812,214.788219 755.081378,206.364656 C740.208944,197.941094 728.477273,186.231417 719.886364,171.235624 C711.295455,156.239832 707,139.207574 707,120.13885 Z" id="Path"></path>
                    <path d="M1004.86364,61.3108108 C1016.55682,61.3108108 1026.95076,63.8502252 1036.04545,68.9290541 C1045.14015,74.0078829 1052.23958,81.4876126 1057.34375,91.3682432 C1062.44792,101.248874 1065,113.114865 1065,126.966216 L1065,217 L1026.02273,217 L1026.02273,132.22973 C1026.02273,120.040541 1022.96023,110.667793 1016.83523,104.111486 C1010.71023,97.5551802 1002.35795,94.277027 991.778409,94.277027 C981.013258,94.277027 972.52178,97.5551802 966.303977,104.111486 C960.086174,110.667793 956.977273,120.040541 956.977273,132.22973 L956.977273,217 L918,217 L918,12 L956.977273,12 L956.977273,82.6418919 C961.988636,75.9932432 968.670455,70.7759009 977.022727,66.9898649 C985.375,63.2038288 994.655303,61.3108108 1004.86364,61.3108108 Z" id="Path"></path>
                    <path d="M1085,139.944056 C1085,124.377622 1088.09648,110.571678 1094.28943,98.5262238 C1100.48238,86.4807692 1108.8937,77.215035 1119.5234,70.729021 C1130.15309,64.243007 1142.03062,61 1155.15598,61 C1166.61756,61 1176.64645,63.3164336 1185.24263,67.9493007 C1193.83882,72.5821678 1200.72501,78.4195804 1205.90121,85.4615385 L1205.90121,63.5017483 L1245,63.5017483 L1245,217.498252 L1205.90121,217.498252 L1205.90121,194.982517 C1200.90988,202.20979 1194.02369,208.186189 1185.24263,212.911713 C1176.46158,217.637238 1166.34027,220 1154.87868,220 C1141.93819,220 1130.15309,216.664336 1119.5234,209.993007 C1108.8937,203.321678 1100.48238,193.916958 1094.28943,181.778846 C1088.09648,169.640734 1085,155.695804 1085,139.944056 Z M1205.90121,140.5 C1205.90121,131.048951 1204.05257,122.941434 1200.35529,116.177448 C1196.658,109.413462 1191.66667,104.22465 1185.38128,100.611014 C1179.0959,96.9973776 1172.34835,95.1905594 1165.13865,95.1905594 C1157.92894,95.1905594 1151.27383,96.951049 1145.17331,100.472028 C1139.07279,103.993007 1134.12767,109.13549 1130.33795,115.899476 C1126.54824,122.663462 1124.65338,130.678322 1124.65338,139.944056 C1124.65338,149.20979 1126.54824,157.317308 1130.33795,164.266608 C1134.12767,171.215909 1139.11901,176.543706 1145.31196,180.25 C1151.50491,183.956294 1158.11381,185.809441 1165.13865,185.809441 C1172.34835,185.809441 1179.0959,184.002622 1185.38128,180.388986 C1191.66667,176.77535 1196.658,171.586538 1200.35529,164.822552 C1204.05257,158.058566 1205.90121,149.951049 1205.90121,140.5 Z" id="Shape"></path>
                    <path d="M1290,45.6020408 C1283.11628,45.6020408 1277.39535,43.4238946 1272.83721,39.067602 C1268.27907,34.7113095 1266,29.2891156 1266,22.8010204 C1266,16.3129252 1268.27907,10.8907313 1272.83721,6.53443878 C1277.39535,2.17814626 1283.11628,0 1290,0 C1296.88372,0 1302.60465,2.17814626 1307.16279,6.53443878 C1311.72093,10.8907313 1314,16.3129252 1314,22.8010204 C1314,29.2891156 1311.72093,34.7113095 1307.16279,39.067602 C1302.60465,43.4238946 1296.88372,45.6020408 1290,45.6020408 Z M1309.25581,63.9540816 L1309.25581,218 L1270.18605,218 L1270.18605,63.9540816 L1309.25581,63.9540816 Z" id="Shape"></path>
                    <path d="M1417.47159,62 C1435.84659,62 1450.69508,67.7829181 1462.01705,79.3487544 C1473.33902,90.9145907 1479,107.060498 1479,127.786477 L1479,218 L1440.02273,218 L1440.02273,133.060498 C1440.02273,120.846975 1436.96023,111.455516 1430.83523,104.886121 C1424.71023,98.316726 1416.35795,95.0320285 1405.77841,95.0320285 C1395.01326,95.0320285 1386.52178,98.316726 1380.30398,104.886121 C1374.08617,111.455516 1370.97727,120.846975 1370.97727,133.060498 L1370.97727,218 L1332,218 L1332,64.2206406 L1370.97727,64.2206406 L1370.97727,83.3736655 C1376.17424,76.7117438 1382.80966,71.4839858 1390.88352,67.6903915 C1398.95739,63.8967972 1407.82008,62 1417.47159,62 Z" id="Path"></path>
                </g>
            </g>
        </g>
    </g>
</svg>